<?xml version="1.0" encoding="utf-8"?>
<!-- Generator: Adobe Illustrator 16.0.0, SVG Export Plug-In . SVG Version: 6.00 Build 0)  -->
<!DOCTYPE svg PUBLIC "-//W3C//DTD SVG 1.0//EN" "http://www.w3.org/TR/2001/REC-SVG-20010904/DTD/svg10.dtd">
<svg version="1.0" id="Calque_1" xmlns="http://www.w3.org/2000/svg" xmlns:xlink="http://www.w3.org/1999/xlink" x="0px" y="0px"
	 width="200px" height="125px" viewBox="0 0 200 125" enable-background="new 0 0 200 125" xml:space="preserve">
<g>
	<path fill="#716161" d="M169.663,99.595c-0.831-0.293-3.5-0.478-4.952-0.259v14.436h-3.867V95.343l3.781,1.964
		c1.103-1.207,3.02-2.261,6.274-1.833L169.663,99.595z"/>
	<path fill="#716161" d="M116.262,95.248c-2.619,0-4.58,0.811-5.814,1.642c-1.141-1.188-2.915-1.642-5.289-1.642
		c-2.452,0-4.033,0.831-5.016,1.588l-3.689-1.493v18.429h3.872V98.743c0,0,1.373-0.326,2.818-0.326c3.749,0,4.965,0.656,4.965,3.348
		v12.007h3.862v-11.835c0-1.255-0.143-2.295-0.415-3.152c0.813-0.186,1.928-0.367,3.123-0.367c3.746,0,5.082,0.656,5.082,3.348
		v12.007h3.867v-11.835C123.628,96.883,121.441,95.248,116.262,95.248"/>
	<path fill="#716161" d="M36.698,110.7c-3.823,0-5.65-2.295-5.846-5.518l13.091,0.37c1.711-6.91-2.718-10.429-7.789-10.429
		c-5.467,0-9.286,3.68-9.286,9.288c0,5.931,3.959,9.578,9.625,9.578c3.596,0,5.982-1.087,7.532-2.685l-2.053-2.298
		C40.458,110.138,39.002,110.7,36.698,110.7 M36.163,98.36c2.8,0,4.283,1.894,4.222,4.087l-9.501,1.141
		C31.171,100.409,32.893,98.36,36.163,98.36"/>
	<path fill="#716161" d="M73.379,90.316c0-1.35-1.019-2.274-2.279-2.274c-1.257,0-2.282,0.925-2.282,2.274
		c0,1.362,1.025,2.291,2.282,2.291C72.361,92.607,73.379,91.679,73.379,90.316"/>
	<path fill="#716161" d="M64.808,87.854l-3.912,1.278v6.894c-0.972-0.505-2.444-0.901-4.04-0.901c-5.362,0-9.661,3.283-9.661,9.54
		c0,5.655,3.537,9.326,9.263,9.326c1.86,0,3.404-0.478,4.606-1.241l3.743,1.309V87.854z M51.288,104.577
		c0-5.255,3.547-7.196,9.608-6.19v11.853c-1.167,0.231-2.49,0.336-3.624,0.336C53.138,110.575,51.288,108.052,51.288,104.577"/>
	<polygon fill="#716161" points="69.068,96.349 72.967,95.15 72.967,113.778 69.068,113.778 	"/>
	<path fill="#716161" d="M177.199,90.471c0-1.349-1.021-2.28-2.276-2.28c-1.265,0-2.287,0.932-2.287,2.28
		c0,1.356,1.022,2.284,2.287,2.284C176.178,92.755,177.199,91.827,177.199,90.471"/>
	<polygon fill="#716161" points="172.878,96.349 176.788,95.15 176.788,113.778 172.878,113.778 	"/>
	<path fill="#716161" d="M84.558,95.46c-3.024,0-5.33,0.999-7.234,2.658l2.527,2.317c1.007-1.053,2.561-1.813,4.495-1.813
		c3.748,0,4.236,1.531,4.236,4.444v0.209c-2.833-0.078-7.084,0.047-10.247,0.515c-2.908,3.074-2.538,10.335,5.129,10.335
		c1.995,0,3.77-0.619,5.117-1.578v0.014l3.914,1.527v-11.781C92.496,98.128,90.381,95.46,84.558,95.46 M84.322,111.046
		c-3.239,0-4.641-2.055-3.957-4.618c2.327-0.586,5.449-1.178,8.216-1.394v5.161C87.781,110.589,86.393,111.046,84.322,111.046"/>
	<polygon fill="#716161" points="19.426,96.184 12.372,104.775 12.25,104.775 5.149,96.184 5.149,113.73 1,113.73 1,90.703 
		5.29,90.703 12.25,98.952 12.356,98.952 19.208,90.703 23.562,90.703 23.562,113.73 19.426,113.73 	"/>
	<path fill="#716161" d="M136.679,110.7c-3.826,0-5.649-2.295-5.847-5.518l13.09,0.37c1.713-6.91-2.713-10.429-7.791-10.429
		c-5.465,0-9.28,3.68-9.28,9.288c0,5.931,3.961,9.578,9.616,9.578c3.6,0,5.988-1.087,7.536-2.685l-2.051-2.298
		C140.438,110.138,138.983,110.7,136.679,110.7 M136.145,98.36c2.799,0,4.282,1.894,4.222,4.087l-9.504,1.141
		C131.155,100.409,132.866,98.36,136.145,98.36"/>
	<path fill="#716161" d="M190.133,110.7c-3.822,0-5.653-2.295-5.857-5.518l13.099,0.37c1.712-6.91-2.713-10.429-7.798-10.429
		c-5.46,0-9.28,3.68-9.28,9.288c0,5.931,3.965,9.578,9.618,9.578c3.603,0,5.991-1.087,7.539-2.685l-2.049-2.298
		C193.891,110.138,192.432,110.7,190.133,110.7 M189.6,98.36c2.787,0,4.269,1.894,4.214,4.087l-9.504,1.141
		C184.601,100.409,186.317,98.36,189.6,98.36"/>
	<path fill="#716161" d="M156.987,109.979c-0.537,0.512-1.396,0.926-2.435,0.926c-2.072,0-2.605-1.211-2.605-3.587V99.11v-0.677
		l5.413,0.316l0.093-3.397l-5.506,0.286v-5.178l-3.741,1.302v3.889l-2.151,0.179v2.486l2.151,0.165v9.164
		c0,4.262,1.879,6.364,6.157,6.364c1.772,0,3.546-0.564,4.604-1.638L156.987,109.979z"/>
</g>
<path fill="#B53239" d="M128.399,6.611h-19.261L98.151,17.56L87.177,6.611H67.903c-2.094,0-3.153,1.159-3.153,3.128v55.578
	c0,1.968,1.147,3.128,3.153,3.128h21.015l9.233,9.208l9.221-9.208h21.027c2.097,0,3.168-1.009,3.168-3.128V9.74
	C131.567,7.846,130.496,6.611,128.399,6.611z M120.353,57.723h-10.419V34.312l-11.783,11.68l-11.605-11.68v23.411H75.951V20.714
	H86.08l12.071,12.109l12.123-12.109h10.079V57.723z"/>
<g>
	<path fill="#DF6136" d="M128.399,6.584h-19.248l-11,10.976L87.164,6.584H67.89c-2.082,0-3.154,1.161-3.154,3.155v2.824
		l11.214,11.209v-3.06H86.08l12.071,12.109l12.123-12.109h10.079v37.009h-10.419V34.312L98.166,45.979l22.476,22.466h7.758
		c2.097,0,3.154-1.032,3.154-3.128V9.74C131.554,7.846,130.496,6.584,128.399,6.584z"/>
</g>
<path fill="#DA373F" d="M75.951,20.714H86.08l12.027,12.065l26.182-26.168h-15.138l-11,10.949L87.152,6.611H67.903
	c-2.094,0-3.153,1.159-3.153,3.128v55.578c0,0.252,0.024,0.531,0.062,0.757l11.139-11.148V20.714z"/>
<path fill="#FFFFFF" d="M86.546,34.312v23.411H75.951V20.714H86.08l12.071,12.109l12.123-12.109h10.079v37.009h-10.419V34.312
	l-11.783,11.68L86.546,34.312z"/>
</svg>
